<?xml version="1.0" standalone="no"?>
<!DOCTYPE svg PUBLIC "-//W3C//DTD SVG 20010904//EN"
 "http://www.w3.org/TR/2001/REC-SVG-20010904/DTD/svg10.dtd">
<svg version="1.0" xmlns="http://www.w3.org/2000/svg"
 width="501.000000pt" height="750.000000pt" viewBox="0 0 501.000000 750.000000"
 preserveAspectRatio="xMidYMid meet">

<g transform="translate(0.000000,750.000000) scale(0.100000,-0.100000)"
fill="#000000" stroke="none">
<path d="M3766 7488 c-2 -7 -9 -29 -16 -48 -7 -19 -13 -46 -12 -59 0 -15 -7
-25 -19 -28 -19 -5 -19 -6 -2 -25 17 -19 17 -20 -14 -16 -51 5 -44 -19 12 -37
19 -7 19 -8 -4 -16 -15 -6 -27 -6 -30 0 -8 11 -81 53 -81 45 0 -11 29 -34 44
-34 20 0 21 -33 2 -50 -8 -6 -12 -18 -9 -26 5 -13 8 -12 24 2 17 15 19 15 19
1 0 -8 -4 -17 -9 -19 -5 -1 -2 -10 7 -18 14 -13 15 -12 9 4 -7 17 -3 18 28 13
20 -3 35 -2 35 4 0 10 14 1 57 -39 22 -20 32 -23 69 -17 24 3 50 13 58 21 8 8
24 14 36 14 13 0 20 5 18 12 -5 14 15 38 30 38 6 0 9 15 7 34 -2 21 2 39 10
46 11 9 10 15 -8 33 -20 20 -20 22 -4 25 19 4 23 28 5 34 -7 3 -8 10 -4 17 7
11 10 11 17 0 6 -10 9 -10 9 -2 0 6 -4 15 -10 18 -5 3 -10 24 -10 46 l0 39
-130 0 c-96 0 -131 -3 -134 -12z m-26 -268 c0 -5 -9 -10 -19 -10 -11 0 -23 5
-26 10 -4 6 5 10 19 10 14 0 26 -4 26 -10z"/>
<path d="M3700 7400 c0 -5 5 -10 11 -10 5 0 7 5 4 10 -3 6 -8 10 -11 10 -2 0
-4 -4 -4 -10z"/>
<path d="M3598 7343 c7 -3 16 -2 19 1 4 3 -2 6 -13 5 -11 0 -14 -3 -6 -6z"/>
<path d="M3585 7220 c-3 -5 -1 -10 4 -10 6 0 11 5 11 10 0 6 -2 10 -4 10 -3 0
-8 -4 -11 -10z"/>
<path d="M0 5478 l0 -1506 41 10 c22 6 43 17 46 24 3 8 15 14 27 14 25 0 61
20 36 20 -10 0 -7 5 8 16 12 8 22 21 22 28 0 6 5 17 12 24 14 14 18 71 6 95
-6 11 -5 17 2 17 15 0 9 88 -7 102 -18 14 -16 28 4 44 17 13 17 13 1 14 -20 0
-23 11 -9 26 6 5 6 28 0 59 -6 28 -10 57 -10 65 2 95 -2 166 -11 171 -7 4 -7
9 1 13 6 4 11 29 11 57 0 29 4 49 11 49 6 0 9 9 6 20 -3 11 -1 20 4 20 5 0 9
14 9 31 0 24 4 30 15 25 27 -10 7 90 -29 143 -16 25 -34 48 -38 49 -5 2 -6 7
-4 11 3 4 -1 27 -8 52 -8 25 -14 103 -15 184 -1 76 -6 144 -11 150 -4 5 -10
60 -13 120 -3 61 -8 118 -12 128 -4 10 -5 38 -3 62 3 24 3 47 0 49 -2 3 -6 22
-6 43 -1 21 -6 47 -11 57 -6 15 -5 17 5 11 10 -6 11 -2 5 21 -8 31 -15 133
-15 223 -1 30 -5 60 -10 66 -5 6 -5 17 -1 24 5 7 5 30 0 50 -5 21 -11 96 -14
166 -4 71 -9 133 -12 139 -3 5 -7 34 -9 65 -5 113 -16 246 -20 250 -2 2 -4
-673 -4 -1501z"/>
<path d="M4996 6751 c-4 -7 -5 -15 -2 -18 9 -9 19 4 14 18 -4 11 -6 11 -12 0z"/>
<path d="M4993 6627 c4 -11 -1 -17 -16 -19 -20 -3 -19 -4 6 -9 21 -5 27 -3 27
12 0 10 -5 21 -12 25 -7 5 -9 2 -5 -9z"/>
<path d="M4344 6608 c-3 -5 -11 -7 -18 -5 -8 3 -12 -8 -12 -32 -1 -58 -27
-161 -41 -161 -16 0 -32 -31 -25 -49 3 -8 0 -11 -6 -7 -10 6 -28 -30 -24 -46
1 -5 -5 -8 -13 -8 -8 0 -16 -9 -16 -20 -1 -19 -3 -29 -9 -47 -1 -5 -5 3 -9 17
-6 21 -14 26 -49 28 -25 2 -42 -1 -42 -7 0 -6 18 -11 40 -11 29 0 40 -4 40
-15 0 -11 -11 -15 -40 -15 -30 0 -42 -5 -50 -21 -7 -11 -9 -23 -7 -26 3 -2 8
5 12 17 5 15 12 19 26 15 10 -3 28 -8 39 -11 13 -3 17 -10 13 -17 -4 -7 -8
-16 -8 -22 0 -5 -11 -11 -25 -13 -14 -1 -30 -3 -37 -4 -19 -2 -4 -18 18 -18
25 0 25 -20 -1 -27 -24 -6 -27 -33 -3 -33 13 0 14 -3 5 -12 -8 -8 -15 -8 -26
1 -8 7 -20 10 -26 6 -8 -5 0 -18 22 -36 25 -22 30 -30 20 -37 -8 -5 -13 -12
-13 -16 5 -38 -1 -65 -14 -60 -8 3 -20 2 -27 -2 -9 -6 -4 -10 17 -15 l30 -6
-27 -11 c-16 -6 -28 -16 -28 -22 0 -6 5 -8 12 -4 24 15 48 11 48 -7 0 -10 5
-21 10 -24 6 -4 10 11 11 37 1 42 1 42 10 13 5 -16 7 -38 5 -47 -7 -31 4 -19
25 25 16 34 19 36 14 12 -5 -24 -4 -28 6 -17 20 19 42 15 36 -7 -3 -11 4 -25
19 -36 24 -17 34 -43 13 -29 -7 4 -9 -1 -7 -12 2 -12 11 -18 22 -16 12 2 15
-1 11 -8 -6 -9 -2 -9 13 -1 27 15 32 14 32 -4 0 -8 -4 -15 -10 -15 -5 0 -10
-5 -10 -11 0 -8 5 -7 16 1 9 8 14 26 13 44 -4 56 1 76 16 76 17 0 19 -13 6
-58 -5 -17 -6 -32 -2 -32 5 0 11 18 15 40 4 24 14 45 26 52 25 16 26 28 3 29
-11 0 -13 3 -5 6 6 2 12 14 12 25 0 17 5 20 30 15 22 -5 28 -3 24 8 -3 7 -13
16 -22 20 -12 4 -7 11 24 30 33 21 34 31 2 26 -5 0 -8 6 -8 14 0 8 7 15 15 15
8 0 15 5 15 10 0 6 -6 10 -14 10 -22 0 -29 37 -14 71 11 25 17 29 38 24 23 -6
24 -5 7 7 -17 12 -18 19 -8 54 9 32 8 41 -3 50 -24 17 -29 59 -12 91 8 15 15
22 16 15 0 -10 4 -10 19 0 16 10 23 9 38 -4 15 -14 20 -14 31 -2 6 7 12 16 12
18 0 9 34 46 42 46 13 0 9 -28 -4 -32 -8 -3 -5 -9 9 -16 19 -11 24 -9 34 10 7
13 16 39 20 58 l7 35 1 -32 c1 -41 21 -44 21 -3 0 32 -19 42 -89 44 -33 1 -36
4 -36 30 0 30 -20 47 -28 24 -2 -7 -3 -5 -2 4 2 10 -1 21 -6 24 -5 3 -9 13 -9
23 0 14 -11 20 -52 26 -80 12 -138 14 -144 3z m308 -188 c2 -22 0 -40 -4 -40
-5 0 -8 18 -8 40 0 22 2 40 4 40 2 0 6 -18 8 -40z m-495 -286 c-3 -3 -12 -4
-19 -1 -8 3 -5 6 6 6 11 1 17 -2 13 -5z m3 -104 c0 -5 -4 -10 -10 -10 -5 0
-10 5 -10 10 0 6 5 10 10 10 6 0 10 -4 10 -10z m-35 -100 c-5 -8 -11 -8 -17
-2 -6 6 -7 16 -3 22 5 8 11 8 17 2 6 -6 7 -16 3 -22z m95 -40 c0 -5 -4 -10
-10 -10 -5 0 -10 5 -10 10 0 6 5 10 10 10 6 0 10 -4 10 -10z m70 -105 c0 -8
-4 -15 -10 -15 -5 0 -10 7 -10 15 0 8 5 15 10 15 6 0 10 -7 10 -15z"/>
<path d="M4930 6599 c0 -5 5 -7 10 -4 6 3 10 8 10 11 0 2 -4 4 -10 4 -5 0 -10
-5 -10 -11z"/>
<path d="M4700 6573 c-10 -12 -11 -18 -2 -21 7 -2 9 -8 6 -13 -3 -6 5 -8 18
-6 12 2 17 2 11 0 -7 -3 -13 -9 -13 -15 0 -6 -17 -9 -40 -6 -22 2 -40 1 -40
-2 0 -10 75 -29 78 -19 2 5 17 9 32 9 34 0 49 17 23 27 -16 6 -15 8 7 14 19 5
14 7 -22 8 -50 1 -61 12 -30 30 13 8 14 10 2 10 -8 0 -22 -7 -30 -16z"/>
<path d="M4880 6569 c0 -5 5 -7 10 -4 6 3 10 8 10 11 0 2 -4 4 -10 4 -5 0 -10
-5 -10 -11z"/>
<path d="M4978 6568 c9 -9 15 -9 24 0 9 9 7 12 -12 12 -19 0 -21 -3 -12 -12z"/>
<path d="M4840 6560 c0 -5 4 -10 9 -10 6 0 13 5 16 10 3 6 -1 10 -9 10 -9 0
-16 -4 -16 -10z"/>
<path d="M4648 6548 c5 -5 16 -8 23 -6 8 3 3 7 -10 11 -17 4 -21 3 -13 -5z"/>
<path d="M4918 6543 c7 -3 16 -2 19 1 4 3 -2 6 -13 5 -11 0 -14 -3 -6 -6z"/>
<path d="M4868 6533 c7 -3 16 -2 19 1 4 3 -2 6 -13 5 -11 0 -14 -3 -6 -6z"/>
<path d="M4990 6504 c0 -8 5 -12 10 -9 6 3 10 10 10 16 0 5 -4 9 -10 9 -5 0
-10 -7 -10 -16z"/>
<path d="M4918 6485 c-4 -20 -2 -25 11 -23 18 4 22 39 5 45 -6 2 -14 -8 -16
-22z"/>
<path d="M4732 6439 c0 -19 4 -29 11 -26 7 2 11 12 9 22 -2 10 2 22 10 26 9 6
7 9 -8 9 -17 0 -21 -6 -22 -31z"/>
<path d="M4820 6462 l-45 -4 45 -14 c58 -18 57 -18 63 6 3 12 0 19 -6 18 -7
-1 -32 -3 -57 -6z"/>
<path d="M4960 6444 c0 -8 5 -12 10 -9 6 3 10 10 10 16 0 5 -4 9 -10 9 -5 0
-10 -7 -10 -16z"/>
<path d="M4777 6433 c-4 -3 -7 -11 -7 -17 0 -6 5 -5 12 2 6 6 9 14 7 17 -3 3
-9 2 -12 -2z"/>
<path d="M4881 6412 c0 -7 -11 -17 -23 -23 -22 -10 -36 -59 -17 -59 5 0 9 6 9
14 0 7 10 20 21 28 14 9 20 21 16 33 -2 11 -5 14 -6 7z"/>
<path d="M4720 6390 c0 -5 7 -10 16 -10 8 0 12 5 9 10 -3 6 -10 10 -16 10 -5
0 -9 -4 -9 -10z"/>
<path d="M4768 6383 c7 -3 16 -2 19 1 4 3 -2 6 -13 5 -11 0 -14 -3 -6 -6z"/>
<path d="M4796 6363 c-8 -24 -7 -33 1 -33 5 0 9 11 10 25 2 29 -3 33 -11 8z"/>
<path d="M4908 6373 c7 -3 16 -2 19 1 4 3 -2 6 -13 5 -11 0 -14 -3 -6 -6z"/>
<path d="M4877 6353 c-12 -12 -7 -22 8 -17 8 4 15 10 15 15 0 11 -14 12 -23 2z"/>
<path d="M1984 6333 c-42 -5 -63 -31 -119 -138 -26 -49 -61 -107 -77 -128 -53
-67 -118 -255 -118 -343 0 -32 -5 -56 -14 -63 -18 -15 -51 -134 -43 -155 3 -8
2 -18 -3 -21 -6 -4 -10 -29 -10 -56 0 -46 2 -50 20 -44 32 10 58 -4 65 -35 6
-26 9 -28 36 -20 25 8 29 6 29 -12 0 -23 -58 -101 -70 -93 -8 5 -70 -66 -70
-80 0 -4 -11 -16 -25 -27 -14 -11 -25 -26 -25 -33 0 -8 -16 -22 -36 -31 -20
-9 -39 -27 -44 -38 -4 -12 -22 -38 -39 -60 -17 -21 -32 -44 -32 -50 -1 -6 -3
-21 -4 -32 -1 -12 -5 -33 -8 -46 -5 -17 -2 -30 8 -38 11 -9 12 -16 5 -25 -7
-8 -4 -17 10 -30 24 -21 26 -40 5 -31 -10 3 -15 -1 -15 -12 0 -27 63 -26 75 1
6 12 21 24 35 25 14 2 29 10 33 18 4 8 14 14 22 14 8 0 19 8 24 18 6 9 11 11
11 5 0 -17 20 -17 20 0 0 8 11 19 25 25 14 6 25 18 25 26 0 7 7 16 15 20 8 3
15 1 15 -4 0 -6 5 -10 10 -10 6 0 10 7 10 15 0 21 13 19 30 -5 8 -11 24 -20
35 -20 12 0 26 -5 32 -10 7 -8 21 0 47 26 l36 36 35 -16 c19 -9 34 -20 32 -25
-1 -4 12 -30 30 -57 17 -27 31 -53 31 -58 0 -5 6 -12 14 -17 10 -6 9 -11 -7
-23 -26 -20 -35 -20 -35 0 0 11 -5 14 -16 10 -26 -10 -85 23 -82 47 2 11 -3
22 -9 24 -7 3 -13 -2 -13 -11 0 -9 -7 -16 -15 -16 -8 0 -15 -4 -15 -10 0 -5
10 -10 23 -10 16 0 18 -3 8 -9 -10 -6 -10 -13 -2 -28 5 -11 7 -23 3 -27 -3 -4
0 -11 8 -16 20 -13 33 -12 25 0 -4 6 7 9 27 8 18 -1 53 2 77 6 31 6 42 5 37
-3 -4 -6 -2 -11 3 -11 6 0 11 5 11 10 0 14 27 12 33 -2 4 -9 8 -10 14 -2 28
36 106 48 109 17 1 -7 2 -21 3 -32 1 -13 11 -20 34 -24 17 -2 35 0 38 5 3 5
10 9 15 9 5 0 9 9 9 22 1 17 6 21 22 19 12 -2 24 2 28 8 3 6 11 8 16 5 5 -4 9
2 10 12 0 10 6 3 14 -17 7 -19 14 -27 14 -17 1 9 6 17 11 17 6 0 10 9 10 20 0
11 5 20 11 20 5 0 9 -8 8 -17 -3 -35 1 -45 16 -39 9 3 18 -1 22 -9 4 -12 8
-13 19 -4 21 17 23 10 14 -38 -7 -40 -6 -43 14 -43 17 0 18 -2 6 -10 -8 -5
-10 -10 -4 -10 7 0 15 -12 19 -27 5 -21 8 -24 16 -12 7 12 9 12 9 -2 0 -9 8
-27 18 -40 29 -37 41 -89 43 -179 1 -30 6 -60 11 -67 14 -17 -12 -84 -36 -92
-16 -7 -17 -9 -5 -21 13 -12 13 -18 -1 -46 -8 -18 -20 -33 -27 -34 -6 0 -12
-8 -12 -17 -1 -35 -13 -83 -22 -83 -5 0 -9 7 -9 15 0 8 -7 15 -15 15 -8 0 -15
5 -15 10 0 6 5 10 12 10 7 0 2 8 -11 18 -13 9 -40 34 -61 55 -21 20 -43 37
-49 37 -6 0 -11 5 -11 11 0 5 -5 7 -10 4 -6 -4 -8 -11 -5 -16 7 -10 -24 -1
-42 13 -7 5 -14 5 -18 -2 -10 -16 -45 7 -45 30 0 11 -7 20 -15 20 -8 0 -15 -4
-15 -9 0 -5 7 -16 15 -25 8 -8 15 -19 15 -23 0 -15 -86 -15 -101 0 -8 7 -19
12 -25 10 -6 -2 -11 3 -11 11 0 8 6 12 12 9 15 -5 28 24 15 32 -6 4 -10 2 -10
-3 0 -4 -20 -7 -45 -6 -42 3 -47 0 -68 -32 -17 -27 -22 -51 -22 -100 0 -50 -3
-64 -15 -65 -10 0 -11 -2 -2 -6 22 -9 13 -20 -13 -15 -13 2 -33 1 -42 -3 -10
-4 -31 -7 -47 -6 -15 2 -26 -1 -23 -7 4 -5 -10 -8 -31 -6 -27 1 -37 6 -36 18
1 9 -2 13 -7 11 -25 -16 -41 77 -27 154 6 36 6 57 -1 65 -6 7 -8 15 -5 19 3 3
-3 10 -14 16 -16 8 -21 6 -31 -15 -13 -28 -15 -94 -3 -94 13 0 13 -50 -1 -51
-6 0 -2 -4 11 -9 14 -6 22 -18 22 -34 0 -14 5 -37 12 -53 6 -15 10 -34 9 -41
-1 -8 3 -20 10 -28 9 -11 8 -14 -2 -14 -11 0 -11 -2 1 -10 9 -6 11 -13 5 -17
-5 -5 -16 -16 -23 -25 -11 -14 -11 -16 6 -11 25 6 37 -23 14 -36 -15 -9 -14
-10 5 -11 13 0 24 -8 28 -20 3 -11 11 -20 16 -20 5 0 9 -5 9 -11 0 -6 -7 -9
-14 -6 -10 4 -13 1 -9 -8 3 -8 -2 -18 -11 -21 -9 -3 -16 -11 -16 -16 0 -6 7
-7 16 -4 12 5 15 2 10 -9 -6 -18 6 -13 37 13 14 12 20 13 30 3 9 -10 8 -15 -5
-25 -10 -7 -15 -20 -12 -32 6 -21 -28 -64 -51 -64 -7 0 -22 -3 -32 -6 -13 -4
-14 -3 -5 4 11 7 11 10 -3 15 -12 5 -14 11 -5 26 5 11 10 22 10 25 0 13 -21 5
-36 -13 -16 -18 -17 -18 -39 3 -27 25 -67 32 -58 10 3 -8 0 -14 -6 -14 -7 0
-14 7 -17 15 -4 8 -12 15 -19 15 -7 0 -19 14 -27 30 -7 17 -25 36 -39 42 -15
7 -34 23 -43 37 -14 23 -16 24 -17 6 0 -14 -4 -11 -10 10 -6 21 -15 31 -30 32
-22 2 -39 18 -39 38 0 6 5 3 10 -5 8 -13 10 -13 10 2 0 9 -13 32 -30 50 -16
18 -30 41 -30 51 0 10 -7 28 -15 41 -9 13 -15 36 -15 52 1 38 -10 96 -21 110
-4 5 -6 19 -3 31 3 11 1 24 -5 27 -8 5 -8 13 0 27 12 24 2 41 -11 19 -7 -11
-11 -11 -24 -1 -29 24 -39 3 -32 -68 13 -120 15 -134 30 -150 8 -9 19 -34 26
-56 28 -96 48 -175 43 -175 -2 0 5 -12 17 -27 18 -23 20 -35 14 -82 -4 -31
-15 -68 -25 -83 -24 -33 -24 -52 -2 -74 13 -13 14 -19 5 -22 -17 -5 -15 -42 3
-42 8 0 15 -5 15 -11 0 -6 11 -25 25 -43 16 -21 25 -46 25 -68 0 -19 3 -38 7
-42 13 -13 13 -50 1 -58 -10 -6 -10 -8 0 -8 6 0 12 -7 12 -15 0 -8 -4 -15 -10
-15 -15 0 -12 -50 3 -50 6 0 4 -5 -5 -11 -28 -16 -22 -37 7 -31 14 2 25 0 25
-6 0 -6 -10 -12 -22 -14 -17 -2 -22 -9 -21 -26 2 -16 -2 -22 -17 -22 -11 0
-20 5 -20 10 0 6 -7 10 -16 10 -9 0 -25 12 -36 26 -12 14 -27 23 -35 20 -7 -3
-16 1 -19 9 -4 8 -14 15 -24 15 -11 0 -22 5 -25 10 -13 21 -25 -3 -25 -51 0
-46 2 -49 25 -49 19 0 25 -5 26 -22 0 -13 3 -18 5 -12 6 15 54 -5 54 -22 0 -7
8 -11 17 -10 11 0 18 -6 18 -19 0 -11 10 -24 23 -30 12 -5 20 -16 17 -23 -2
-7 9 -26 25 -42 18 -18 25 -30 17 -33 -8 -3 -4 -12 11 -26 12 -12 23 -31 24
-41 0 -11 1 -26 2 -32 1 -7 6 -16 13 -21 14 -8 11 -27 -11 -79 -9 -21 -13 -39
-9 -39 5 -1 13 -2 18 -3 24 -3 47 -24 40 -36 -6 -9 -9 -9 -16 1 -7 12 -9 11
-10 -1 -1 -8 -1 -18 0 -22 0 -5 -4 -8 -9 -8 -6 0 -10 8 -10 17 0 25 -8 11 -15
-24 -4 -24 -1 -34 12 -42 17 -9 17 -10 1 -16 -10 -4 -25 -5 -33 -1 -11 4 -15
-1 -15 -19 0 -14 -4 -25 -9 -25 -5 0 -13 -10 -17 -22 -9 -31 -22 -38 -71 -38
-29 0 -43 4 -43 13 0 18 -91 22 -102 5 -4 -7 -8 -29 -8 -48 0 -19 -7 -71 -15
-114 -15 -78 -12 -140 7 -152 6 -4 5 -10 -3 -15 -11 -7 -10 -9 3 -9 9 0 23 -7
32 -15 9 -9 34 -16 61 -17 25 0 48 -4 51 -9 3 -5 14 -9 25 -9 10 0 19 -4 19
-8 0 -4 20 -21 45 -36 25 -16 45 -34 45 -40 0 -6 8 -16 19 -23 10 -6 21 -29
25 -52 3 -22 11 -52 17 -68 6 -15 13 -40 14 -56 2 -15 8 -34 15 -42 11 -13 10
-14 -3 -9 -15 5 -15 2 -5 -26 6 -18 19 -41 30 -52 10 -10 18 -27 18 -38 0 -11
5 -20 11 -20 5 0 8 -4 5 -8 -3 -5 2 -28 10 -51 10 -30 12 -58 7 -94 -4 -29 -6
-55 -5 -59 1 -5 -3 -8 -9 -8 -7 0 -9 -9 -6 -21 4 -15 2 -19 -8 -15 -9 3 -14
-2 -14 -15 -1 -10 -1 -28 -2 -38 0 -11 -11 -26 -23 -34 -18 -12 -22 -22 -18
-46 2 -17 0 -31 -5 -31 -13 0 -10 -60 3 -84 11 -18 12 -17 28 5 9 13 16 29 16
36 0 7 5 13 10 13 6 0 10 7 10 15 0 8 9 15 19 15 28 0 131 -41 131 -52 0 -5 4
-6 10 -3 5 3 7 0 4 -9 -3 -9 2 -17 15 -21 21 -6 26 -21 22 -60 -4 -40 10 -85
31 -96 15 -8 19 -8 14 0 -4 6 0 11 9 11 10 0 15 -5 12 -14 -3 -8 5 -19 19 -26
13 -8 24 -17 24 -21 0 -4 13 -10 30 -14 16 -4 32 -11 35 -16 4 -5 14 -9 24 -9
21 0 71 -22 71 -32 0 -5 14 -8 30 -8 17 0 30 -4 30 -10 0 -5 10 -10 23 -10 13
0 28 -5 34 -11 7 -7 13 -8 17 0 4 6 15 7 29 2 44 -16 262 3 236 20 -10 7 -6 8
11 4 18 -4 33 1 52 20 16 14 28 23 28 20 0 -4 7 1 16 9 8 9 25 16 37 17 21 0
21 1 2 9 -19 8 -19 9 3 9 12 1 22 5 22 11 0 5 12 13 26 16 16 4 23 12 20 20
-3 8 0 14 7 14 7 0 21 11 31 25 10 14 27 25 37 25 13 0 17 5 12 17 -4 10 -2
14 4 10 10 -7 33 33 33 58 0 7 5 15 10 17 6 2 13 32 15 68 9 120 23 164 74
232 48 65 81 125 81 150 0 8 3 18 8 22 4 4 8 12 8 17 1 5 2 10 4 12 1 1 3 11
5 22 6 35 10 50 17 61 4 5 6 25 6 43 -1 22 5 37 16 43 9 5 14 13 11 18 -7 11
23 60 37 60 9 0 18 7 66 51 16 14 43 32 60 40 18 8 32 17 32 21 0 4 14 6 31 4
22 -3 34 2 42 15 7 11 15 19 20 19 4 0 5 -5 1 -11 -4 -7 1 -7 16 1 19 10 22
10 17 -2 -4 -12 5 -15 45 -15 30 -1 56 -7 67 -17 10 -9 22 -16 28 -16 6 0 18
-11 27 -25 9 -14 24 -25 32 -25 11 0 14 -5 10 -16 -4 -11 4 -26 24 -44 16 -15
27 -30 23 -34 -4 -4 -3 -10 2 -14 6 -4 17 -20 27 -37 9 -16 25 -35 36 -40 15
-8 17 -14 8 -28 -9 -14 -7 -20 7 -28 9 -6 14 -15 11 -21 -4 -6 0 -14 7 -19 12
-8 12 -11 -1 -19 -13 -8 -12 -10 4 -10 13 0 16 -5 12 -16 -4 -9 -1 -23 5 -30
9 -11 8 -14 -5 -14 -9 0 -16 -4 -16 -10 0 -5 9 -10 20 -10 11 0 20 -2 20 -5 0
-9 -36 -41 -53 -48 -10 -4 -14 -12 -11 -22 6 -15 -16 -22 -30 -8 -4 4 -24 8
-44 9 -32 2 -34 1 -14 -7 14 -5 20 -14 16 -20 -3 -6 0 -15 7 -20 12 -8 12 -10
0 -18 -7 -5 -11 -13 -7 -19 8 -13 -55 -25 -89 -16 -20 5 -24 3 -19 -10 4 -9 1
-16 -6 -16 -10 0 -10 -3 -1 -14 10 -12 8 -16 -10 -21 -22 -7 -21 -8 12 -27
l34 -19 -37 6 c-41 6 -48 -3 -22 -29 14 -15 13 -16 -8 -16 -18 0 -20 -2 -8
-10 13 -8 13 -10 -1 -10 -26 0 -18 -54 11 -79 24 -20 24 -20 4 -21 -22 0 -39
-24 -28 -41 3 -5 0 -9 -6 -9 -8 0 -7 -6 1 -21 9 -17 8 -23 -2 -30 -11 -6 -10
-9 4 -15 12 -4 14 -10 8 -18 -17 -20 -17 -61 -1 -61 10 0 15 10 15 30 0 22 6
33 23 40 12 5 20 16 17 22 -2 7 3 13 13 14 9 0 12 3 6 5 -13 5 -7 44 6 44 13
0 18 36 7 56 -10 18 -9 18 10 1 24 -21 40 -23 23 -2 -10 13 -9 15 9 15 12 0
21 6 21 14 0 8 9 21 20 29 11 8 17 17 13 20 -3 4 1 7 10 7 9 0 17 7 17 15 0 9
7 18 15 21 8 4 15 12 15 20 0 13 12 18 33 15 4 0 7 5 7 13 0 21 33 28 66 15
33 -13 94 -18 94 -8 0 4 -5 9 -12 11 -9 3 -9 6 0 12 7 4 12 3 12 -1 0 -5 15
-7 33 -5 40 4 60 4 175 -1 51 -2 95 0 98 4 3 5 18 9 35 9 16 0 29 5 29 10 0 6
7 10 17 10 14 0 13 3 -4 17 -11 10 -18 23 -16 30 3 7 -3 9 -16 6 -14 -3 -30 4
-51 25 -16 17 -30 28 -30 26 0 -3 -7 2 -16 10 -8 9 -27 19 -42 22 -15 4 -32
11 -37 18 -15 16 -37 28 -167 91 -64 31 -78 42 -78 61 0 12 -5 26 -11 30 -7 4
-9 21 -6 40 3 19 1 34 -4 34 -5 0 -2 11 7 25 16 24 15 27 -11 65 -30 44 -29
78 4 155 10 22 21 48 24 57 3 9 23 24 44 34 21 9 48 26 60 37 20 18 21 22 8
46 -7 15 -27 37 -44 50 -17 13 -31 31 -31 39 0 8 -20 34 -45 59 -25 24 -45 50
-45 58 0 8 -5 15 -10 15 -6 0 -14 8 -17 17 -4 10 -17 32 -31 50 -25 34 -32
104 -14 139 38 72 62 137 62 169 0 25 7 46 21 61 12 13 24 45 29 80 6 33 14
79 19 104 8 36 7 47 -5 56 -13 10 -13 12 0 17 9 4 12 14 9 26 -3 12 -9 19 -13
16 -4 -2 -21 13 -38 35 -25 30 -31 45 -26 68 4 17 1 32 -5 36 -6 4 -11 18 -11
31 0 32 -10 56 -21 49 -5 -3 -9 6 -9 19 0 33 -18 46 -71 52 -54 7 -56 10 -65
62 -5 35 -3 42 12 46 13 3 14 5 4 6 -19 1 -44 56 -37 81 3 11 1 20 -5 20 -6 0
-8 12 -5 26 3 15 -2 43 -10 63 -21 49 -27 115 -13 141 9 16 8 25 0 35 -8 10
-10 56 -6 155 4 108 2 151 -9 182 -7 23 -12 46 -9 50 3 5 0 15 -6 23 -6 8 -9
18 -6 23 3 5 -1 23 -9 40 -10 19 -18 75 -22 155 -6 122 -5 126 20 170 14 24
37 51 50 60 13 8 45 44 73 81 27 36 63 72 79 80 32 16 143 119 188 176 22 27
26 30 22 13 -5 -19 -2 -23 17 -24 13 0 32 -2 43 -5 11 -2 45 -6 75 -9 30 -3
96 -12 145 -21 50 -9 111 -15 138 -15 35 1 49 -2 54 -14 4 -11 13 -15 29 -11
12 3 26 2 29 -4 7 -12 26 -14 23 -2 -6 17 55 8 81 -12 12 -9 13 -8 8 7 -6 16
-5 17 14 4 11 -8 29 -13 39 -10 19 5 50 -17 50 -35 0 -5 8 -19 18 -30 11 -12
27 -52 36 -89 10 -38 22 -76 27 -86 5 -10 7 -22 3 -28 -7 -12 15 -41 26 -34 4
3 8 20 8 39 0 19 4 41 8 48 5 7 7 25 5 40 -1 16 1 28 6 28 5 0 15 27 21 60 12
56 51 120 74 120 5 0 20 -8 33 -18 16 -13 34 -17 55 -14 l31 4 -3 147 c-3 144
-3 146 -26 149 -20 3 -21 6 -10 20 11 13 11 15 -4 9 -10 -3 -18 -2 -18 3 0 13
40 89 51 96 5 3 9 21 9 39 0 31 -5 37 -37 50 -30 13 -35 18 -23 25 9 6 10 10
3 10 -14 0 -13 40 2 40 5 0 3 6 -5 13 -8 7 -15 19 -15 27 0 19 -35 26 -47 8
-6 -9 -7 -5 -3 11 5 16 4 21 -4 17 -6 -4 -25 1 -43 10 -47 24 -240 33 -265 12
-10 -8 -13 -7 -13 4 0 11 -11 15 -40 15 -21 0 -37 -4 -34 -9 7 -11 -7 -10 -26
2 -9 6 -20 5 -29 -3 -12 -9 -13 -9 -7 0 4 8 -9 27 -35 52 -29 27 -42 47 -43
67 -1 24 -6 30 -29 32 -17 2 -36 -3 -47 -13 -16 -15 -18 -14 -24 9 -4 17 -11
23 -21 19 -13 -4 -13 -8 -3 -20 10 -12 9 -17 -3 -27 -16 -11 -18 -61 -4 -93 9
-20 12 -29 14 -43 0 -5 7 -7 14 -4 8 3 20 -2 27 -10 7 -9 16 -13 21 -10 5 3 9
1 9 -4 0 -6 23 -13 50 -17 33 -5 50 -12 50 -21 0 -16 16 -19 25 -4 4 6 10 8
15 5 5 -3 18 -2 27 4 13 6 24 5 38 -5 23 -17 52 -18 57 -3 2 6 13 -6 23 -26
14 -27 17 -39 8 -42 -7 -2 -9 -12 -6 -21 6 -15 5 -15 -10 -3 -11 9 -17 10 -17
2 0 -6 -4 -11 -10 -11 -5 0 -7 7 -4 15 4 9 0 15 -10 15 -10 0 -13 -5 -9 -17 5
-12 2 -15 -10 -10 -9 3 -19 2 -22 -4 -4 -5 -11 -7 -16 -3 -5 3 -16 1 -24 -6
-10 -8 -15 -8 -20 1 -4 6 -1 15 6 20 12 8 12 11 -1 19 -20 13 -34 7 -39 -16
-5 -29 -20 -43 -73 -70 -29 -15 -57 -22 -69 -19 -10 4 -19 2 -19 -3 0 -11 -65
-9 -92 2 -9 4 -21 5 -26 2 -6 -3 -15 1 -22 9 -13 16 -35 21 -26 6 3 -5 -3 -29
-14 -52 l-20 -44 0 35 c0 19 -8 44 -18 56 -15 19 -72 48 -97 49 -5 0 -45 9
-88 19 -59 14 -85 16 -102 8 -13 -6 -31 -9 -41 -6 -18 5 -189 -19 -359 -50
-94 -18 -165 -20 -165 -6 0 6 -9 10 -20 10 -15 0 -20 -7 -20 -25 0 -18 -5 -25
-20 -25 -11 0 -20 4 -20 8 0 5 -11 15 -25 22 -21 11 -23 15 -10 22 22 13 18
27 -10 38 -20 7 -24 16 -23 43 1 23 -6 41 -20 55 -12 12 -22 26 -22 32 0 15
-42 50 -61 50 -10 0 -19 6 -22 13 -3 8 -10 6 -21 -8 -13 -17 -17 -18 -25 -5
-9 12 -11 12 -17 -3 -9 -25 -34 -21 -34 6 0 12 -6 29 -13 37 -15 20 -98 61
-109 54 -4 -3 -8 4 -8 16 0 11 -6 20 -12 18 -7 -1 -26 1 -41 5 -21 6 -37 2
-60 -12 -18 -10 -48 -22 -67 -26 -19 -4 -39 -11 -45 -15 -16 -12 -75 -20 -75
-11 0 13 30 35 63 46 33 11 49 35 23 35 -15 0 -40 70 -86 245 -46 174 -97 300
-150 371 -8 11 -35 34 -60 50 -46 30 -98 38 -176 27z m771 -803 c3 -5 1 -10
-4 -10 -6 0 -11 5 -11 10 0 6 2 10 4 10 3 0 8 -4 11 -10z m2131 -167 c2 -26
-11 -31 -20 -7 -9 23 -7 31 7 31 6 0 13 -11 13 -24z m-2559 -58 c0 -8 -4 -12
-9 -9 -5 3 -6 10 -3 15 9 13 12 11 12 -6z m-12 -55 c-4 -11 -2 -20 4 -20 6 0
11 8 12 18 0 13 3 11 10 -6 5 -13 13 -21 18 -18 5 3 11 -8 15 -25 3 -17 10
-28 15 -25 13 9 20 -31 7 -44 -8 -8 -7 -13 4 -20 8 -5 11 -10 7 -10 -4 0 -3
-9 3 -19 7 -14 6 -21 -3 -24 -9 -3 -9 -7 0 -18 7 -9 8 -20 3 -29 -4 -7 -4 -24
1 -37 8 -22 3 -53 -10 -53 -3 0 -12 -13 -19 -29 -11 -25 -17 -28 -55 -26 -88
4 -104 12 -110 56 -6 43 -22 69 -43 69 -19 0 -18 -26 2 -34 26 -10 7 -23 -27
-18 -18 3 -29 1 -26 -4 3 -5 -18 -7 -45 -5 l-51 3 27 23 c35 30 26 55 -20 55
-27 0 -34 4 -34 19 0 11 9 23 20 26 11 3 20 11 20 16 0 5 14 9 30 9 17 0 30 5
30 11 0 6 8 8 19 4 13 -4 20 -1 23 10 3 13 6 13 32 0 31 -17 43 -14 30 7 -7
11 -8 25 -5 73 1 8 6 14 13 13 7 -2 13 3 14 10 3 26 6 26 15 4 13 -33 32 -17
24 20 -6 27 -5 29 14 23 12 -4 21 -2 21 4 0 6 5 11 11 11 6 0 8 -9 4 -20z
m846 -78 c8 -22 8 -22 -15 -5 -13 10 -22 22 -19 26 8 13 26 2 34 -21z m-241
-136 c0 -2 -8 -10 -17 -17 -16 -13 -17 -12 -4 4 13 16 21 21 21 13z m67 -12
c12 -12 13 -15 2 -13 -23 5 -59 -11 -59 -26 0 -7 -7 -16 -16 -19 -8 -3 -13
-10 -9 -15 3 -5 0 -13 -6 -16 -5 -4 -8 -13 -5 -20 2 -7 -2 -16 -11 -19 -11 -5
-14 -1 -10 13 3 14 1 18 -9 14 -8 -3 -14 0 -14 7 0 6 9 14 20 17 11 3 20 10
20 15 0 5 -4 6 -10 3 -5 -3 -10 -1 -10 5 0 6 12 16 27 23 15 6 36 20 45 30 22
21 25 21 45 1z m-117 -8 c0 -3 -4 -8 -10 -11 -5 -3 -10 -1 -10 4 0 6 5 11 10
11 6 0 10 -2 10 -4z m-60 -26 c0 -10 -31 -23 -38 -15 -8 7 19 35 29 29 5 -3 9
-9 9 -14z m206 -43 c4 -4 0 -7 -9 -7 -9 0 -18 4 -21 9 -7 10 20 9 30 -2z
m-176 -32 c10 -12 10 -15 -4 -15 -9 0 -16 7 -16 15 0 8 2 15 4 15 2 0 9 -7 16
-15z m125 5 c-3 -5 -11 -10 -16 -10 -6 0 -7 5 -4 10 3 6 11 10 16 10 6 0 7 -4
4 -10z m-215 -100 c0 -5 -4 -10 -10 -10 -5 0 -10 5 -10 10 0 6 5 10 10 10 6 0
10 -4 10 -10z m48 -56 c36 -10 25 -24 -18 -24 -38 0 -54 13 -27 23 17 7 19 7
45 1z m-370 -26 c-2 -6 -10 -14 -16 -16 -7 -2 -10 2 -6 12 7 18 28 22 22 4z
m-53 -58 c-3 -5 -11 -10 -16 -10 -6 0 -7 5 -4 10 3 6 11 10 16 10 6 0 7 -4 4
-10z m322 -582 c-3 -7 -5 -2 -5 12 0 14 2 19 5 13 2 -7 2 -19 0 -25z m143 -48
c0 -5 -4 -10 -10 -10 -5 0 -10 5 -10 10 0 6 5 10 10 10 6 0 10 -4 10 -10z
m-34 -86 c-6 -16 -72 -19 -94 -5 -8 5 8 6 39 3 47 -4 52 -3 46 12 -4 10 -4 23
0 29 9 15 17 -18 9 -39z m-1 -34 c4 -6 -6 -10 -24 -10 -16 0 -33 5 -36 10 -4
6 6 10 24 10 16 0 33 -4 36 -10z m-54 -54 c16 -3 29 -11 29 -17 0 -13 -53 -3
-58 12 -2 5 -13 9 -25 9 -20 0 -20 0 -1 14 15 12 20 12 22 1 2 -7 16 -15 33
-19z m-29 -144 c-7 -2 -9 -9 -6 -14 4 -7 2 -8 -4 -4 -6 4 -9 13 -6 21 4 8 11
12 17 8 8 -5 7 -8 -1 -11z m41 -16 c4 -10 1 -13 -9 -9 -7 3 -14 9 -14 14 0 14
17 10 23 -5z m-888 -82 c-9 -9 -19 -13 -23 -10 -3 4 0 11 8 16 24 15 33 11 15
-6z m65 -79 c-7 -9 -15 -13 -17 -11 -6 6 20 36 26 30 2 -2 -2 -10 -9 -19z m71
-19 c5 3 9 1 9 -5 0 -5 -4 -13 -10 -16 -5 -3 -10 -4 -10 -1 0 2 -2 10 -3 18
-2 7 -2 10 0 5 3 -4 9 -5 14 -1z m-25 -34 c-9 -8 -26 10 -26 26 1 15 2 15 15
-2 8 -11 13 -21 11 -24z m96 -6 c-4 -7 -8 -5 -10 7 -2 9 -8 17 -13 17 -5 0 -9
5 -9 12 0 6 8 3 20 -7 11 -10 16 -23 12 -29z m-132 4 c0 -5 -7 -10 -16 -10 -8
0 -12 5 -9 10 3 6 10 10 16 10 5 0 9 -4 9 -10z m187 -6 c-3 -3 -12 -4 -19 -1
-8 3 -5 6 6 6 11 1 17 -2 13 -5z m-157 -44 c0 -5 -7 -10 -15 -10 -8 0 -15 5
-15 10 0 6 7 10 15 10 8 0 15 -4 15 -10z m-518 -165 c-2 -14 -6 -25 -8 -25 -2
0 -4 11 -4 25 0 14 4 25 9 25 4 0 6 -11 3 -25z m8 -269 c0 -11 -19 -15 -25 -6
-3 5 1 10 9 10 9 0 16 -2 16 -4z m2180 -1861 c0 -11 -40 -24 -57 -18 -14 6
-11 9 17 14 19 4 36 7 38 8 1 0 2 -1 2 -4z m77 -51 c-3 -3 -12 -4 -19 -1 -8 3
-5 6 6 6 11 1 17 -2 13 -5z m-123 -72 c2 -4 -11 -6 -30 -4 -19 2 -34 6 -34 8
0 8 59 4 64 -4z"/>
<path d="M2225 5090 c-3 -5 -1 -10 4 -10 6 0 11 5 11 10 0 6 -2 10 -4 10 -3 0
-8 -4 -11 -10z"/>
<path d="M4670 6315 c0 -8 7 -15 15 -15 18 0 20 -16 3 -26 -6 -4 -16 0 -23 9
-19 26 -30 20 -32 -15 -1 -18 -3 -46 -5 -63 -3 -27 0 -30 21 -27 20 3 23 0 18
-17 -4 -16 0 -21 15 -21 14 0 18 -5 13 -19 -7 -24 20 -49 29 -25 6 16 18 16
60 -1 15 -7 17 -5 12 13 -7 21 8 40 19 22 9 -15 25 -12 25 4 0 17 -24 28 -45
20 -8 -4 -15 -1 -15 7 0 7 3 10 6 6 3 -3 18 5 31 18 14 12 39 26 55 29 17 3
27 10 23 16 -4 7 -11 8 -18 2 -7 -5 -26 -13 -43 -16 -37 -8 -67 19 -70 64 -1
16 -5 33 -9 39 -10 17 -35 13 -35 -6 -1 -17 -1 -17 -11 0 -12 21 -39 23 -39 2z
m74 -39 c-3 -13 -1 -27 5 -30 6 -4 11 -14 11 -22 0 -10 -11 -14 -42 -13 -32 2
-35 3 -15 6 25 4 28 7 22 33 -7 31 -1 50 16 50 5 0 7 -11 3 -24z m51 -87 c-8
-12 -35 -12 -35 0 0 11 22 20 33 14 4 -2 5 -9 2 -14z m-38 -55 c-3 -3 -12 -4
-19 -1 -8 3 -5 6 6 6 11 1 17 -2 13 -5z"/>
<path d="M4887 6319 c-9 -6 -15 -14 -12 -20 4 -5 -3 -9 -14 -9 -12 0 -21 5
-21 11 0 6 -10 9 -22 7 -17 -2 -24 -10 -26 -33 -2 -32 12 -64 24 -52 4 4 2 13
-4 19 -30 30 -1 50 38 26 15 -10 22 -9 39 6 11 10 18 23 14 28 -3 6 1 14 8 19
20 12 -2 11 -24 -2z"/>
<path d="M3650 6261 c0 -6 6 -11 14 -11 8 0 17 -6 20 -12 3 -7 5 -4 3 7 -2 20
-37 35 -37 16z"/>
<path d="M3639 6233 c-5 -59 -12 -89 -19 -91 -6 -2 -10 -8 -10 -14 0 -6 -8
-17 -17 -25 -13 -10 -15 -16 -5 -19 14 -7 16 -50 2 -59 -19 -12 14 -43 52 -49
21 -3 38 -11 38 -16 0 -13 37 -13 46 1 4 7 -2 9 -17 7 -17 -2 -25 3 -27 17 -3
16 -1 17 8 8 7 -7 25 -9 40 -6 26 5 27 4 25 -35 -2 -28 1 -39 10 -36 20 8 67
-47 60 -71 -4 -11 -7 -28 -6 -37 0 -10 -4 -20 -9 -23 -5 -3 -7 -12 -4 -19 3
-8 1 -17 -5 -21 -7 -4 -8 -12 -2 -24 9 -16 17 -66 25 -146 3 -27 26 -50 26
-26 0 6 5 11 10 11 6 0 3 -11 -7 -25 -11 -15 -24 -22 -35 -19 -13 4 -18 0 -18
-17 0 -18 2 -19 15 -9 12 10 15 10 15 -1 0 -11 2 -11 10 1 5 8 10 10 10 4 0
-6 -6 -17 -14 -23 -21 -18 -25 -45 -10 -72 7 -13 13 -20 14 -16 0 5 10 1 21
-7 29 -20 59 -1 59 36 0 16 5 28 10 28 6 0 8 -11 4 -25 -4 -15 -2 -25 5 -25
13 0 15 15 11 83 -1 37 2 52 17 62 17 13 17 15 1 31 -16 16 -17 16 -23 -9 -8
-32 -35 -58 -35 -34 0 9 5 19 10 22 6 3 10 13 10 21 0 9 -5 12 -12 8 -7 -4 -8
-3 -4 4 4 7 25 15 47 18 44 7 53 24 13 24 -21 0 -25 4 -21 20 3 11 0 20 -6 20
-7 0 -4 5 6 11 21 12 13 29 -14 29 -10 0 -19 7 -19 15 0 8 6 15 14 15 8 0 14
6 13 13 -2 49 4 69 18 63 8 -3 15 -1 15 4 0 5 -10 10 -21 12 -12 2 -27 12 -33
23 -6 11 -17 24 -24 28 -7 5 -10 12 -7 17 3 5 1 19 -5 30 -8 14 -8 26 0 40 7
14 7 20 0 20 -5 0 -10 19 -10 43 0 52 -17 88 -50 104 -25 13 -25 13 -2 13 12
0 22 4 22 9 0 5 -8 7 -19 4 -10 -3 -22 0 -25 6 -4 7 1 11 13 11 12 0 21 5 21
10 0 10 -27 15 -62 12 -12 -1 -18 6 -19 21 -1 17 -3 15 -8 -8 -7 -29 -7 -29
-15 -7 -5 14 -15 22 -31 22 -13 0 -27 5 -30 10 -7 12 -35 14 -36 3z m61 -47
c0 -8 -7 -16 -15 -20 -13 -4 -14 -2 -5 14 13 23 20 26 20 6z m170 -130 c0 -3
-4 -8 -10 -11 -5 -3 -10 -1 -10 4 0 6 5 11 10 11 6 0 10 -2 10 -4z m-120 -28
c0 -13 -23 -5 -28 10 -2 7 2 10 12 6 9 -3 16 -11 16 -16z m36 -85 c-11 -11
-19 6 -11 24 8 17 8 17 12 0 3 -10 2 -21 -1 -24z m141 -158 c2 -37 2 -38 -11
-14 -15 30 -17 61 -2 56 5 -2 11 -21 13 -42z m-22 -45 c3 -5 1 -10 -4 -10 -6
0 -11 5 -11 10 0 6 2 10 4 10 3 0 8 -4 11 -10z m15 -70 c0 -5 -5 -10 -11 -10
-5 0 -7 5 -4 10 3 6 8 10 11 10 2 0 4 -4 4 -10z m-65 -79 c3 -5 1 -12 -5 -16
-5 -3 -10 1 -10 9 0 18 6 21 15 7z m35 -61 c0 -5 -4 -10 -10 -10 -5 0 -10 5
-10 10 0 6 5 10 10 10 6 0 10 -4 10 -10z m28 -47 c-2 -9 -8 -18 -15 -20 -7 -3
-9 3 -6 16 6 25 26 28 21 4z"/>
<path d="M4090 6180 c0 -5 7 -10 15 -10 8 0 15 5 15 10 0 6 -7 10 -15 10 -8 0
-15 -4 -15 -10z"/>
<path d="M4858 6163 c7 -3 16 -2 19 1 4 3 -2 6 -13 5 -11 0 -14 -3 -6 -6z"/>
<path d="M4050 6109 c0 -5 5 -7 10 -4 6 3 10 8 10 11 0 2 -4 4 -10 4 -5 0 -10
-5 -10 -11z"/>
<path d="M4450 6081 c0 -12 5 -21 10 -21 6 0 10 6 10 14 0 8 -4 18 -10 21 -5
3 -10 -3 -10 -14z"/>
<path d="M4790 6070 c-13 -8 -12 -10 3 -10 9 0 17 5 17 10 0 12 -1 12 -20 0z"/>
<path d="M3568 6053 c7 -3 16 -2 19 1 4 3 -2 6 -13 5 -11 0 -14 -3 -6 -6z"/>
<path d="M3890 6041 c0 -6 5 -13 10 -16 6 -3 10 1 10 9 0 9 -4 16 -10 16 -5 0
-10 -4 -10 -9z"/>
<path d="M3987 5943 c-11 -10 -8 -43 3 -43 6 0 10 11 10 25 0 26 -2 29 -13 18z"/>
<path d="M4458 5933 c7 -3 16 -2 19 1 4 3 -2 6 -13 5 -11 0 -14 -3 -6 -6z"/>
<path d="M3986 5871 c-4 -7 -5 -15 -2 -18 9 -9 19 4 14 18 -4 11 -6 11 -12 0z"/>
<path d="M4030 5825 c0 -8 7 -15 16 -15 14 0 14 3 4 15 -7 8 -14 15 -16 15 -2
0 -4 -7 -4 -15z"/>
<path d="M4258 5663 c7 -3 16 -2 19 1 4 3 -2 6 -13 5 -11 0 -14 -3 -6 -6z"/>
<path d="M4180 5549 c0 -5 5 -7 10 -4 6 3 10 8 10 11 0 2 -4 4 -10 4 -5 0 -10
-5 -10 -11z"/>
<path d="M3970 5410 c0 -5 5 -10 10 -10 6 0 10 5 10 10 0 6 -4 10 -10 10 -5 0
-10 -4 -10 -10z"/>
<path d="M3943 5373 c-13 -2 -23 -8 -23 -13 0 -5 14 -5 31 0 34 10 53 5 44
-11 -4 -5 1 -9 9 -9 20 0 20 7 2 26 -15 14 -22 15 -63 7z"/>
<path d="M1470 4641 c0 -11 9 -21 22 -24 29 -8 31 -5 12 21 -19 27 -34 28 -34
3z"/>
<path d="M1397 4620 c7 -8 8 -22 2 -42 -11 -39 -7 -44 37 -52 46 -9 76 11 47
31 -15 12 -16 15 -3 23 13 8 12 11 -5 24 -11 9 -28 16 -37 16 -9 0 -25 3 -35
6 -14 6 -15 4 -6 -6z m54 -70 c6 0 7 -5 4 -10 -11 -17 -25 0 -24 28 2 24 2 24
6 5 2 -13 9 -23 14 -23z"/>
<path d="M1520 4580 c0 -5 5 -10 10 -10 6 0 10 5 10 10 0 6 -4 10 -10 10 -5 0
-10 -4 -10 -10z"/>
<path d="M2505 4530 c-3 -5 -2 -10 4 -10 5 0 13 5 16 10 3 6 2 10 -4 10 -5 0
-13 -4 -16 -10z"/>
<path d="M1498 4503 c7 -3 16 -2 19 1 4 3 -2 6 -13 5 -11 0 -14 -3 -6 -6z"/>
<path d="M1440 4480 c0 -5 7 -10 16 -10 8 0 12 5 9 10 -3 6 -10 10 -16 10 -5
0 -9 -4 -9 -10z"/>
<path d="M1464 4438 c1 -13 12 -29 26 -38 23 -13 29 -16 47 -19 4 0 2 -6 -5
-13 -7 -7 -12 -19 -12 -27 0 -11 11 -5 31 17 23 25 29 36 20 45 -8 8 -11 7
-11 -6 0 -9 -4 -17 -10 -17 -5 0 -10 7 -10 16 0 8 -4 12 -10 9 -5 -3 -10 -2
-10 4 0 5 -9 13 -21 16 -12 4 -18 12 -15 21 3 8 0 14 -8 14 -7 0 -12 -10 -12
-22z"/>
<path d="M1575 4451 c-3 -5 -1 -12 5 -16 5 -3 10 1 10 9 0 18 -6 21 -15 7z"/>
<path d="M1382 4439 c2 -6 8 -10 13 -10 5 0 11 4 13 10 2 6 -4 11 -13 11 -9 0
-15 -5 -13 -11z"/>
<path d="M1643 4311 c4 -15 -3 -20 -37 -26 l-41 -8 49 -9 c27 -5 50 -8 51 -6
7 8 -9 68 -17 68 -6 0 -8 -9 -5 -19z"/>
<path d="M1274 4235 c-3 -8 -4 -20 -1 -27 4 -8 6 -6 6 5 1 9 8 17 16 17 8 0
15 5 15 10 0 16 -30 12 -36 -5z"/>
<path d="M4767 4232 c-15 -9 -27 -23 -28 -32 -7 -113 -6 -131 6 -147 13 -17
14 -17 27 0 21 28 159 59 172 39 4 -8 16 -8 36 0 29 10 30 12 30 74 l0 64 -27
-6 c-16 -3 -43 -12 -60 -20 -29 -13 -37 -13 -68 2 -19 9 -35 20 -35 24 0 16
-27 17 -53 2z"/>
<path d="M2635 4130 c3 -5 11 -10 16 -10 6 0 7 5 4 10 -3 6 -11 10 -16 10 -6
0 -7 -4 -4 -10z"/>
<path d="M1640 4039 c0 -5 5 -7 10 -4 6 3 10 8 10 11 0 2 -4 4 -10 4 -5 0 -10
-5 -10 -11z"/>
<path d="M1678 4003 c6 -2 18 -2 25 0 6 3 1 5 -13 5 -14 0 -19 -2 -12 -5z"/>
<path d="M4749 3912 c-8 -10 -13 -29 -11 -44 6 -52 72 -77 215 -84 l57 -2 0
66 0 67 -30 0 c-16 0 -30 -2 -30 -5 0 -11 -142 -13 -150 -1 -11 17 -38 18 -51
3z"/>
<path d="M1730 3860 c0 -5 5 -10 10 -10 6 0 10 5 10 10 0 6 -4 10 -10 10 -5 0
-10 -4 -10 -10z"/>
<path d="M1760 3841 c0 -6 5 -13 10 -16 6 -3 10 1 10 9 0 9 -4 16 -10 16 -5 0
-10 -4 -10 -9z"/>
<path d="M4990 3220 c-8 -5 -32 -10 -52 -10 -27 0 -38 -4 -38 -15 0 -8 -4 -15
-10 -15 -5 0 -10 5 -10 11 0 6 -7 4 -15 -5 -8 -8 -15 -18 -15 -22 0 -4 -7 -12
-15 -18 -9 -6 -17 -21 -18 -34 -1 -12 -6 -21 -11 -19 -6 2 -16 -7 -23 -21 -15
-28 -1 -64 21 -56 7 3 16 -2 19 -10 4 -9 16 -14 34 -12 15 2 37 -2 48 -9 11
-7 39 -15 63 -19 l42 -6 0 135 c0 74 -1 135 -2 135 -2 0 -10 -5 -18 -10z"/>
<path d="M231 3118 c-1 -10 -5 -18 -10 -18 -13 0 -33 -65 -29 -92 3 -21 5 -20
22 11 12 23 20 30 26 21 10 -16 16 -4 26 44 6 33 4 38 -9 33 -9 -3 -18 -1 -21
6 -2 7 -5 4 -5 -5z"/>
<path d="M150 2979 c0 -6 -8 -23 -19 -37 -11 -16 -20 -53 -24 -89 -5 -62 -5
-63 20 -63 20 0 24 4 20 20 -3 11 -2 20 2 20 3 0 12 9 19 20 9 16 10 24 0 39
-9 15 -8 22 5 36 21 20 21 29 1 49 -18 19 -24 20 -24 5z"/>
<path d="M93 2773 c9 -2 23 -2 30 0 6 3 -1 5 -18 5 -16 0 -22 -2 -12 -5z"/>
<path d="M865 2502 c-16 -8 -32 -18 -35 -21 -3 -4 -16 -12 -30 -19 -39 -20
-66 -37 -85 -52 -50 -42 -103 -62 -152 -58 -22 2 -39 0 -36 -4 2 -5 -3 -8 -11
-8 -8 0 -18 5 -21 11 -4 5 -17 9 -28 8 -12 -1 -30 1 -39 6 -10 4 -38 5 -63 3
-25 -2 -45 0 -45 5 0 4 -30 6 -68 5 -47 -1 -81 4 -114 17 -42 17 -49 18 -62 5
-14 -13 -12 -19 10 -48 14 -18 30 -30 35 -26 6 3 15 2 22 -3 19 -14 106 -41
172 -53 33 -7 107 -21 165 -32 112 -21 184 -24 295 -15 49 5 85 2 120 -8 32
-10 51 -12 53 -5 2 5 9 7 15 3 7 -4 8 0 3 13 -4 10 -10 42 -13 69 -4 39 -2 54
10 64 11 8 13 18 8 29 -26 53 -51 111 -51 121 0 15 -18 12 -55 -7z"/>
<path d="M1360 2310 c0 -5 5 -10 10 -10 6 0 10 5 10 10 0 6 -4 10 -10 10 -5 0
-10 -4 -10 -10z"/>
<path d="M3567 1232 c-36 -39 -4 -45 37 -7 l27 25 -24 0 c-13 0 -31 -8 -40
-18z"/>
<path d="M4515 800 c3 -5 10 -10 16 -10 5 0 9 5 9 10 0 6 -7 10 -16 10 -8 0
-12 -4 -9 -10z"/>
<path d="M1427 794 c-3 -3 -2 -16 3 -27 18 -45 40 -127 40 -146 0 -29 11 -26
43 10 38 43 33 83 -15 131 -36 36 -57 46 -71 32z"/>
<path d="M4675 730 c3 -5 8 -10 11 -10 2 0 4 5 4 10 0 6 -5 10 -11 10 -5 0 -7
-4 -4 -10z"/>
<path d="M4724 706 c11 -9 27 -16 35 -15 14 0 14 1 1 6 -8 3 -24 10 -35 15
-20 9 -20 9 -1 -6z"/>
<path d="M3233 703 c-16 -6 -17 -89 -3 -98 17 -10 58 -80 60 -101 6 -51 -15
-57 -80 -24 -22 11 -46 20 -54 20 -8 0 -36 19 -62 43 -38 35 -52 42 -76 39
-19 -3 -28 -10 -27 -21 4 -28 -12 -69 -29 -76 -11 -4 -23 1 -33 14 -16 20 -16
20 -38 -5 -11 -13 -25 -24 -30 -24 -21 0 -41 13 -41 27 0 11 -7 13 -24 9 -29
-7 -59 20 -36 34 15 9 5 43 -11 38 -7 -2 -26 -23 -43 -47 -28 -39 -31 -50 -31
-121 0 -43 -3 -82 -8 -86 -13 -14 -7 -81 9 -95 8 -7 13 -20 11 -30 -8 -31 8
-44 38 -31 37 17 53 15 60 -8 3 -10 21 -29 40 -40 19 -12 40 -33 47 -47 22
-43 43 -51 72 -24 24 23 81 27 81 6 1 -25 18 -35 55 -31 42 3 70 20 70 41 0
14 18 20 92 30 27 4 49 13 52 22 3 8 10 12 15 8 5 -3 13 0 16 6 4 6 18 8 31 5
35 -9 64 13 64 49 0 21 11 40 35 64 38 37 44 64 20 98 -11 16 -16 50 -16 120
-1 54 -6 106 -11 116 -5 10 -29 27 -53 37 -24 10 -61 35 -83 54 -38 35 -53 40
-79 29z"/>
<path d="M4797 669 c7 -7 15 -10 18 -7 3 3 -2 9 -12 12 -14 6 -15 5 -6 -5z"/>
<path d="M1213 643 c-29 -6 -36 -83 -11 -121 23 -35 25 -112 2 -112 -21 0 -94
52 -94 67 0 6 7 19 16 28 12 12 19 13 30 4 11 -9 14 -7 14 10 0 26 -6 26 -54
0 -29 -15 -48 -19 -75 -14 -20 4 -38 11 -42 16 -3 5 -23 1 -44 -10 -41 -20
-65 -18 -65 5 0 21 -14 17 -44 -15 -37 -39 -59 -31 -80 30 -19 52 -31 61 -41
30 -3 -11 -12 -22 -20 -25 -17 -6 -55 -78 -55 -102 0 -9 15 -36 34 -58 l34
-42 -29 -34 c-29 -35 -38 -83 -18 -95 6 -4 7 -19 4 -36 -6 -27 -4 -29 22 -29
22 0 44 -14 87 -55 31 -30 61 -55 65 -55 5 0 20 9 34 20 31 25 39 25 62 0 25
-27 44 -25 91 9 41 30 180 81 224 81 30 0 44 9 53 33 4 10 26 26 50 36 60 26
99 76 85 110 -6 17 -6 27 1 29 6 2 11 28 11 58 l0 54 43 1 c37 0 39 2 20 11
-12 6 -24 21 -27 33 -8 31 -33 39 -46 15 -10 -18 -12 -18 -53 9 -23 15 -57 33
-74 41 -18 7 -33 19 -33 27 0 14 -39 54 -50 51 -3 0 -15 -3 -27 -5z m-433
-209 c0 -8 -5 -12 -10 -9 -6 4 -8 11 -5 16 9 14 15 11 15 -7z"/>
<path d="M4964 554 c-18 -15 -18 -15 6 -10 14 3 28 6 33 6 4 0 7 5 7 10 0 15
-24 12 -46 -6z"/>
</g>
</svg>
